<svg xmlns="http://www.w3.org/2000/svg" id="Layer_1" version="1.1" viewBox="0 0 1200 600"><defs id="defs14"><clipPath id="clippath"><path id="path9" fill="none" d="M0 0h1200v600H0z"/></clipPath><style id="style12">.cls-3{fill:#ff8000}</style></defs><path id="rect191" fill="#fff" d="M0 0h1200v600H0z"/><g id="g26" clip-path="url(#clippath)"><path id="path16" d="M237.7 170.6c0 6-2.7 11.4-7.6 15.1-13.5 9.7-34 7-44.2-6-5.4-6.4-6.5-14-2.7-21.5 4.8-10.3 17.8-15.1 29.6-12.4 14 3.2 24.3 14 24.9 24.8M132.5 346c-.6-43.1 14.5-82 34.5-119.2 8.6-16.7 22.1-21.6 38.8-17.8 10.3 2.7 17.3 11.3 15.7 21.6a327.5 327.5 0 0 1-10.8 39.4c-9.7 26.4-17.3 54-24.3 80.9a66.6 66.6 0 0 0-2.7 29.1c1 6 7.6 9.2 13.5 7a41 41 0 0 0 20.5-15c7.6-10.3 14.6-21.1 21.6-31.4 4.8-8.6 9.1-17.2 18.3-22 3.8-2.2 7.6-2.8 10.3 1 1.6 2.1 2.7 6.5 1.6 7.5-16.7 23.8-28.6 51.3-51.3 70.7-16.7 14.6-37.7 15.1-57.7 9.7a34.6 34.6 0 0 1-25.9-29.1c-1.6-10.8-1.6-21.6-2.1-32.4m197.4-66.4c-25.9.5-51.3-2.2-76-10.3-5.5-1.6-9.8-6.4-9.2-12.4.5-5.4 4.8-9.2 10.7-10.8a83 83 0 0 1 12-2.1l85.2-6.5c15-1 29.6-.5 43.6 7 5 2.7 8.7 7 9.2 12.4.6 8.1-4.3 13-10.8 15.7-21 8.6-43.1 6.4-64.7 7" class="cls-3"/><path id="path18" d="M446.4 221.9c1.6-12 11.4-25.4 1.6-36.7-8-9.2-22-4.3-33.4-6.5-12.4-2.7-25.4-3.8-36.7-10.2-5.4-2.7-9.7-7-9.7-13.5.6-6.5 5.4-10.8 10.8-12.4a247 247 0 0 1 34.5-6.5 149 149 0 0 1 31.3-1c15.1 0 24.3-6 30.2-19.5 4.3-10.8 10.3-21 16.7-30.8 6.5-8.6 15.7-14 26.5-14.5 15.6-1.1 27.5 7.5 30.7 22.6.6 2.2 1 4.3 1 7-.4 28.6 3.9 36.2 37.9 35.1 8-.5 16.1 2.2 23.2 6.5 7 4.8 12.9 10.8 12.9 20-.5 9.1-6 15-14 18.3a88 88 0 0 1-16.7 6c-4.4 1-9.2 1-13.5 1-45.3-.5-40 8.6-48 40.5-9.7 41-18.4 82-27 123a98 98 0 0 0-1.6 17.2c-.6 4.9 5.9 8 10.2 6.5a76.5 76.5 0 0 0 26-23.2 608.2 608.2 0 0 0 34.4-48.6 150.3 150.3 0 0 1 26.5-32.3c4.8-3.3 10.7-4.9 16.7-1.6 5.4 3.7 7 9.1 5.4 15.6-15.7 55.6-48.6 98.7-100.4 124-27.5 13.6-61.5 6.5-80.9-28a104 104 0 0 1-12.4-50.7L446.4 222Z" class="cls-3"/><path id="path20" d="M704.8 280.1c-.5-3.2-.5-8-2.2-13-2.1-9.1-11.8-15-19.9-11.3-11.9 4.4-23.7 10.8-28.6 23.8a154 154 0 0 0-10.3 56c.6 9.8 6 13.6 16.2 10.3 24.8-7 44.3-34.5 44.8-65.8m-40 106.8c-43 2.7-84.6-26.4-76.5-73.3 3.2-21 6.5-40.5 16.2-60 5.4-11.2 11.8-21 20.5-29.6 8.6-8 18.3-11.3 28-5.4 14 7.6 29.1 13 43.7 16.7a42 42 0 0 1 23.7 19.5c3.8 5.3 8.1 11.3 12.4 16.7 5.4 5.4 15.7 4.3 20.5-2.7 2.7-4.9 4.9-10.8 8.1-15.7 7.6-10.2 18.4-14 27-8 11.3 6.4 14 20.4 6 31.2A46.9 46.9 0 0 1 757 298c-20.5 0-27.5 9.7-29.7 27.5-1 6-3.8 11.9-5.4 17.3-12.4 30.2-35.6 43.7-57.1 44.2" class="cls-3"/><path id="path22" d="M835.9 279.6c-25.9.5-51.3-2.2-76-10.3-5.5-1.6-9.8-6.4-9.2-12.4.5-5.4 4.8-9.2 10.8-10.8 3.7-1 7.5-1.6 11.8-2.1l85.2-6.5c15.1-1 29.7-.5 43.7 7 4.9 2.7 8.7 7 9.2 12.4.5 8.1-4.3 13-10.8 15.7-21 8.6-43.1 6.4-64.7 7m198-109c0 6-2.7 11.4-7.6 15.1-13.5 9.7-34 7-44.2-6-5.4-6.4-6.5-14-2.7-21.5 4.9-10.3 17.8-15.1 29.7-12.4 14 3.2 24.3 14 24.8 24.8M928.7 346c-.6-43.1 14.6-82 34.5-119.2 8.6-16.7 22.1-21.6 38.9-17.8 10.2 2.7 17.2 11.3 15.6 21.6a323.9 323.9 0 0 1-10.8 39.4c-9.7 26.4-17.2 54-24.3 80.9a66.4 66.4 0 0 0-2.7 29.1c1.1 6 7.6 9.2 13.5 7a41 41 0 0 0 20.5-15c7.6-10.3 14.6-21.1 21.6-31.4 4.9-8.6 9.2-17.2 18.3-22 3.8-2.2 7.6-2.8 10.3 1 1.6 2.1 2.7 6.5 1.6 7.5-66.3 87.4-28.6 51.3-51.2 70.7-16.8 14.6-37.8 15.1-57.8 9.7a34.6 34.6 0 0 1-25.8-29.1c-1.7-10.8-1.7-21.6-2.2-32.4" class="cls-3"/><path id="path24" fill="#3d3d3d" d="M1092 517.6a8.7 8.7 0 0 0 5.8 3.6 19.3 19.3 0 0 0 10-.7c1-.4 1.8-1 2.4-1.7a5 5 0 0 0 1-3c0-1.7-.7-3-2-3.8a16 16 0 0 0-4.7-2c-2-.6-4-1.1-6.2-1.5-2.2-.5-4.3-1-6.2-1.9-1.9-.7-3.5-1.8-4.7-3.3a8.6 8.6 0 0 1-2-5.9 9 9 0 0 1 1.4-5 11 11 0 0 1 3.4-3.5 18 18 0 0 1 4.7-2 30.9 30.9 0 0 1 11.3 0c2 .3 3.6 1 5 2 1.4.9 2.6 2.1 3.4 3.7 1 1.6 1.4 3.6 1.6 6h-6.5a6.5 6.5 0 0 0-1-3.2 6.6 6.6 0 0 0-2-2 10 10 0 0 0-3-1c-1-.3-2-.4-3-.4s-2 0-3 .2-1.9.4-2.7.8c-.8.4-1.4.9-2 1.5a4 4 0 0 0-.7 2.5c0 1.1.4 2 1.2 2.8.7.7 1.7 1.3 3 1.8 1.2.5 2.5.9 4 1.2a371.4 371.4 0 0 1 9.3 2.3c1.6.5 3 1.2 4.1 2a11 11 0 0 1 3 3.1 9.3 9.3 0 0 1 1 4.7c0 2.4-.5 4.4-1.5 6-1 1.5-2.2 2.8-3.8 3.7a14 14 0 0 1-5.4 2 31.8 31.8 0 0 1-12.2 0c-2-.5-3.7-1.3-5.2-2.3-1.5-1-2.7-2.4-3.6-4-1-1.8-1.5-3.8-1.6-6.3h6.5c0 1.5.4 2.6 1 3.6m-12.8-30.4v5.7h-7.9v24.3l.2 1.8c.2.5.4.8.8 1 .3.3.8.5 1.4.6h5.5v5.8h-5c-1.6 0-3-.1-4.3-.4a6.4 6.4 0 0 1-2.8-1.2 5.3 5.3 0 0 1-1.7-2.6 15 15 0 0 1-.5-4.4v-25h-6.7v-5.6h6.7v-11.8h6.4v11.8h7.9Zm-37 0v8.3h.2c1.6-3.2 3.5-5.6 5.8-7 2.2-1.6 5.1-2.3 8.6-2.2v6.8c-2.6 0-4.8.4-6.6 1-1.8.8-3.3 1.8-4.4 3.2-1 1.3-1.9 3-2.4 5-.5 1.9-.8 4.1-.8 6.7v17.4h-6.4v-39.2h6Zm-19.5 36.7a18 18 0 0 1-11 3.3c-3.2 0-5.9-.5-8.2-1.5a16 16 0 0 1-5.8-4.2 18 18 0 0 1-3.5-6.5c-.8-2.6-1.3-5.3-1.4-8.3a21.3 21.3 0 0 1 5.2-14.6 17.3 17.3 0 0 1 13.3-5.8 15.6 15.6 0 0 1 14.2 7.7c1.4 2.2 2.3 4.6 2.9 7.2.5 2.7.7 5.2.6 7.5h-29.3c0 1.8.1 3.4.6 5a10.9 10.9 0 0 0 6 7c1.6.6 3.5 1 5.6 1 2.7 0 5-.7 6.7-2a9.2 9.2 0 0 0 3.4-5.7h6.4c-.9 4.4-2.8 7.7-5.7 9.9m-1.5-25.2a11 11 0 0 0-10.3-6.7 11 11 0 0 0-8 3.3c-1 1-1.7 2.2-2.2 3.5a13 13 0 0 0-1 4.3h22.5c-.1-1.6-.4-3-1-4.4m-42 2.4c-.6-1.7-1.3-3.3-2.3-4.6a10.9 10.9 0 0 0-9.2-4.5c-2 0-4 .4-5.5 1.3s-2.8 2-3.7 3.4a14 14 0 0 0-2.1 4.7 22.7 22.7 0 0 0 0 11c.5 1.7 1.2 3.3 2.2 4.7a11.2 11.2 0 0 0 9.5 4.5c2.2 0 4-.4 5.6-1.3 1.5-.8 2.7-2 3.6-3.4.9-1.4 1.5-3 2-4.8.3-1.8.6-3.7.6-5.6a20 20 0 0 0-.8-5.4m-23.1-13.9v5.3h.1a10 10 0 0 1 5-4.7c2.3-1 4.8-1.5 7.5-1.5 3 0 5.7.6 8 1.7a16 16 0 0 1 5.6 4.5c1.5 1.9 2.6 4 3.3 6.6a26.7 26.7 0 0 1 0 15.7c-.7 2.5-1.8 4.7-3.3 6.5a15.3 15.3 0 0 1-5.6 4.4 17.8 17.8 0 0 1-11 1.3c-1.2-.2-2.4-.6-3.6-1-1.1-.5-2.2-1.1-3.3-1.9-1-.8-1.9-1.7-2.6-3h-.1v20.2h-6.5v-54h6.5Zm-49.8 0h8.3L924 501l9.7-13.8h7.8l-13.5 18 15.1 21.2H935l-11-16.2-10.8 16.2h-7.8l14.7-20.6-13.7-18.6Zm-5.5-14.9v6h-30.2v17.3h28.1v6h-28.1v18.7H901v6.1h-37.6v-54.1h37.4Zm-97.1 15v6.1h.1c2.7-4.7 7-7 12.8-7 2.6 0 4.7.3 6.4 1 1.7.7 3.1 1.7 4.2 3 1 1.2 1.8 2.7 2.2 4.4.4 1.8.7 3.7.7 5.8v25.8h-6.5V500a8 8 0 0 0-2.1-5.8 7.9 7.9 0 0 0-5.8-2c-2 0-3.7.2-5.2.8s-2.6 1.5-3.6 2.6a11 11 0 0 0-2.1 3.9c-.5 1.5-.7 3.1-.7 4.9v22.1h-6.5v-39.2h6Zm-51.2 11.5a17.2 17.2 0 0 1 9.6-10.9c2.4-1 5-1.6 8.2-1.6s5.8.6 8.2 1.6 4.3 2.5 6 4.4c1.6 1.8 2.8 4 3.6 6.5a26 26 0 0 1 0 16c-.8 2.6-2 4.7-3.7 6.6a17 17 0 0 1-6 4.3c-2.3 1-5 1.5-8.1 1.5s-5.8-.5-8.2-1.5a16.8 16.8 0 0 1-9.6-10.8 26.4 26.4 0 0 1 0-16.1m6.5 14.4c.6 1.8 1.5 3.4 2.6 4.6a11.2 11.2 0 0 0 8.7 3.8 11.6 11.6 0 0 0 11.2-8.4 20.3 20.3 0 0 0 0-12.7c-.6-1.8-1.5-3.4-2.6-4.6a11.2 11.2 0 0 0-8.6-3.9 11.6 11.6 0 0 0-11.3 8.5 21 21 0 0 0 0 12.7m-16.4 13.2h-6.4v-39.2h6.4v39.2Zm-6.4-54.1h6.4v7.9h-6.4v-7.9Zm-8.3 15v5.6h-7.8v24.3c0 .8 0 1.4.2 1.9.1.4.4.8.7 1 .4.3.9.4 1.5.5l2.4.1h3v5.7h-5c-1.6 0-3-.1-4.2-.3a6.4 6.4 0 0 1-2.9-1.3 5.3 5.3 0 0 1-1.6-2.6 15 15 0 0 1-.5-4.4v-25H707v-5.6h6.7v-11.7h6.4v11.7h7.8Zm-34 25.4c0 1-.2 2-.6 3-.5 1-1.2 2-2.1 2.8-1 .9-2.3 1.6-3.8 2.2a15.3 15.3 0 0 1-8.3.6c-1-.2-1.7-.6-2.4-1-.7-.5-1.2-1-1.7-1.8-.4-.7-.6-1.6-.6-2.7a6 6 0 0 1 1.1-3.8c.7-1 1.7-1.6 2.8-2.1 1.2-.5 2.5-.9 4-1.1l4.3-.6 4.2-.7a8 8 0 0 0 3.2-1.3v6.5Zm10.5 8.6a8 8 0 0 1-2 .3c-1 0-1.6-.4-1.7-1.1-.2-.7-.3-1.8-.3-3.3V497c0-2.3-.4-4.1-1.3-5.6s-2-2.5-3.4-3.2c-1.4-.8-3-1.3-4.7-1.6a37 37 0 0 0-11.6.3c-2 .5-3.6 1.2-5.1 2.2-1.6 1-2.8 2.4-3.7 4.1s-1.4 3.7-1.5 6.1h6.4c.2-2.8 1.2-4.8 3-5.8s4-1.6 6.8-1.6l3 .3a7 7 0 0 1 2.9.9c.8.4 1.5 1 2 2 .6.8.8 2 .8 3.3 0 1.3-.3 2.2-1 2.8a7 7 0 0 1-3 1.4 28 28 0 0 1-4.1.8 58 58 0 0 0-10 2c-1.5.4-3 1-4.2 2a10 10 0 0 0-3 3.4c-.7 1.4-1.1 3.2-1.1 5.5 0 2 .3 3.6 1 5a9 9 0 0 0 2.8 3.4 12 12 0 0 0 4.1 1.9 20.6 20.6 0 0 0 12.7-.8 16 16 0 0 0 6.1-4.6c0 2.1.5 3.7 1.5 4.6 1 1 2.3 1.4 4 1.4 2 0 3.5-.3 4.6-1v-5ZM651.7 494a9.8 9.8 0 0 0-6.6-2.1 12 12 0 0 0-5.8 1.3c-1.6.9-2.8 2-3.7 3.4-1 1.4-1.6 3-2 4.9a26.2 26.2 0 0 0 0 11 14 14 0 0 0 2 4.6 10.1 10.1 0 0 0 8.8 4.4c3.2 0 5.7-.8 7.4-2.5 1.8-1.6 3-4 3.3-7h6.6a18 18 0 0 1-5.4 11.2 17 17 0 0 1-11.8 4c-3 0-5.7-.5-8-1.5s-4.2-2.3-5.7-4.1a17.9 17.9 0 0 1-3.5-6.3 28.8 28.8 0 0 1 0-16.3c.7-2.6 1.9-4.8 3.4-6.7 1.5-1.9 3.5-3.4 5.8-4.5a23.3 23.3 0 0 1 14.4-.8 14.3 14.3 0 0 1 10.6 12.7h-6.7a10 10 0 0 0-3.1-5.8m-40 32.4v-6.2h-.1a13 13 0 0 1-5.2 5.3 15.6 15.6 0 0 1-7.5 1.7c-2.6 0-4.8-.3-6.5-1a10.2 10.2 0 0 1-6.4-7.4c-.4-1.8-.6-3.7-.6-5.8v-25.8h6.4v26.5c0 2.5.7 4.4 2.1 5.8a7.9 7.9 0 0 0 5.9 2.1c2 0 3.6-.3 5-.9a9.5 9.5 0 0 0 3.7-2.6 11 11 0 0 0 2.1-3.9c.5-1.5.8-3.1.8-4.9v-22.1h6.4v39.2h-6Zm-43.5 0V521h-.1c-1 2.2-2.7 3.7-5 4.7s-4.8 1.4-7.5 1.4a16.3 16.3 0 0 1-13.5-6.1c-1.5-1.9-2.7-4-3.4-6.5a27.6 27.6 0 0 1 0-15.8c.7-2.5 1.8-4.6 3.3-6.5a16 16 0 0 1 5.6-4.3 17.8 17.8 0 0 1 11-1.4 16.6 16.6 0 0 1 6.9 3c1 .7 1.9 1.7 2.6 2.9h.1v-20.2h6.5v54.1h-6.5Zm-23.1-14c.5 1.8 1.2 3.4 2.2 4.8s2.2 2.4 3.8 3.2c1.5.8 3.3 1.2 5.4 1.2s4-.4 5.5-1.3a11 11 0 0 0 3.7-3.3c1-1.4 1.7-3 2.1-4.8a22.7 22.7 0 0 0 0-11c-.5-1.7-1.2-3.3-2.2-4.7a11.2 11.2 0 0 0-9.5-4.5 10.3 10.3 0 0 0-9.2 4.7c-.9 1.4-1.5 3-2 4.8a26 26 0 0 0-.5 5.6c0 1.9.2 3.6.7 5.4m-14-40.2v6h-30.2v17.2h28v6.1h-28v18.7h30.3v6h-37.5v-54H531Zm-98.6 30.1c-1.1.8-2.1 1.7-3 2.6a10.6 10.6 0 0 0-2.8 7.4 8.8 8.8 0 0 0 3.2 6.6 11.6 11.6 0 0 0 7.1 2.6c2.5 0 4.7-.6 6.7-1.7 2-1.2 3.5-2.7 4.9-4.7l-12.5-15-3.6 2.3m13 22.8a21 21 0 0 1-8.7 2 20 20 0 0 1-8.8-1.7c-2.2-1.1-4-2.5-5.1-4-1.2-1.6-2-3.2-2.4-5s-.6-3-.6-4a14.4 14.4 0 0 1 3.8-10 17 17 0 0 1 4-3.5l4.9-3a255.4 255.4 0 0 0-4.2-6 12.7 12.7 0 0 1-1-11c.5-1.2 1.3-2.4 2.3-3.5 1-1 2.4-1.8 3.9-2.4a14 14 0 0 1 5.2-1c1.7 0 3.3.3 4.9.7 1.6.5 3 1.2 4.2 2.1 1.2 1 2.2 2.1 3 3.5.7 1.4 1 3 1 4.8a13.3 13.3 0 0 1-3.1 8.4c-1 1.1-2 2.2-3.2 3.1-1.2 1-2.5 1.8-3.8 2.5l9.8 12c1-2.9 1.5-5.7 1.7-8.5h6.1a75 75 0 0 1-1.1 7.3l-1 2.9-1.5 3.2 10.5 12.2H458l-5.7-6.8a15 15 0 0 1-6.7 5.7m-4.8-33.9c.9-.6 1.7-1.2 2.4-2a10 10 0 0 0 1.7-2.5c.5-1 .7-2 .7-3.2 0-1.6-.6-3-1.7-4s-2.6-1.7-4.5-1.7a7 7 0 0 0-4.3 1.4c-1.3.9-2 2.3-2 4.3 0 .8.2 1.6.6 2.4l1.2 2.4c.5.8 1 1.6 1.7 2.3l1.8 2.3c.8-.5 1.6-1 2.4-1.7m-63.3 28.4a12.7 12.7 0 0 0 5.6-8.4 23.7 23.7 0 0 0 0-10.5c-.3-1.7-1-3.2-1.9-4.5a10 10 0 0 0-3.4-3.2c-1.4-.8-3.2-1.2-5.2-1.2s-3.8.3-5.3 1.1a11.5 11.5 0 0 0-5.6 7.7 27.3 27.3 0 0 0-.1 10.7 15 15 0 0 0 1.8 4.8c.8 1.5 2 2.6 3.4 3.5 1.4.9 3.2 1.3 5.3 1.3s4-.4 5.4-1.3m8.2 17.6c-2.9 3.2-7.5 4.8-13.8 4.8-1.8 0-3.6-.2-5.5-.6-2-.4-3.6-1-5.2-2a12 12 0 0 1-3.8-3.6 9.8 9.8 0 0 1-1.7-5.3h6.5c0 1.1.4 2.1 1 3a8 8 0 0 0 2.6 1.9c1 .5 2 .9 3.2 1.1l3.3.3c2.1 0 4-.3 5.4-1a10.7 10.7 0 0 0 5.7-7.7c.4-1.9.7-3.9.7-6v-2.6h-.2a10.8 10.8 0 0 1-5 5.3 17.2 17.2 0 0 1-14.8.1c-2.2-1-4-2.4-5.5-4.2a18 18 0 0 1-3.3-6.3 26 26 0 0 1-.2-14.8c.6-2.5 1.6-4.7 3-6.7a16.5 16.5 0 0 1 14.2-6.8c2.5 0 4.8.5 6.8 1.6 2 1 3.7 2.7 4.9 4.9v-5.6h6.1V523c0 6.4-1.5 11.2-4.4 14.4m-66.2-50.2v6.2h.1c2.7-4.8 7-7.1 12.8-7.1 2.6 0 4.7.3 6.4 1 1.7.7 3.1 1.7 4.2 3a11 11 0 0 1 2.2 4.5c.5 1.7.7 3.7.7 5.8v25.8h-6.5v-26.6c0-2.4-.7-4.3-2.1-5.7a7.9 7.9 0 0 0-5.8-2.1c-2 0-3.7.3-5.1.9a9.7 9.7 0 0 0-3.6 2.5 11 11 0 0 0-2.2 4c-.5 1.4-.7 3-.7 4.8v22.2h-6.5v-39.2h6Zm-16.8 39.2H296v-39.2h6.5v39.2Zm-6.5-54.2h6.5v8H296v-8Zm-36.8 0V493h.2a8.6 8.6 0 0 1 2-3 15.8 15.8 0 0 1 10.2-3.6c2.7 0 4.8.3 6.5 1 1.8.7 3.2 1.7 4.2 3a12 12 0 0 1 2.3 4.5c.4 1.7.6 3.7.6 5.8v25.8H279v-26.6c0-2.4-.8-4.3-2.2-5.7a8 8 0 0 0-5.8-2.1c-2 0-3.7.3-5.1.9a9.9 9.9 0 0 0-5.8 6.4 16 16 0 0 0-.7 5v22H253v-54h6.4ZM234.8 494a9.8 9.8 0 0 0-6.5-2 12 12 0 0 0-5.8 1.2c-1.6.9-2.9 2-3.8 3.4-1 1.5-1.6 3-2 5a26.9 26.9 0 0 0 0 11 14 14 0 0 0 2 4.5 10.2 10.2 0 0 0 8.8 4.5 11 11 0 0 0 7.5-2.5c1.8-1.7 2.9-4 3.3-7h6.6c-.7 4.8-2.5 8.5-5.4 11.1s-6.9 4-11.9 4a17.8 17.8 0 0 1-13.7-5.5 17.9 17.9 0 0 1-3.5-6.4 28.8 28.8 0 0 1 0-16.3c.8-2.5 2-4.7 3.5-6.6 1.5-2 3.4-3.4 5.8-4.5a23.3 23.3 0 0 1 14.4-.8c1.9.5 3.6 1.3 5 2.4 1.6 1.1 2.8 2.5 3.7 4.2 1 1.7 1.6 3.7 1.9 6H238a10 10 0 0 0-3.2-5.7m-40.6 18.7a8.4 8.4 0 0 1-2.8 5.8c-1 .8-2.2 1.5-3.7 2.1a15.3 15.3 0 0 1-8.4.6 7 7 0 0 1-2.3-1c-.7-.4-1.3-1-1.7-1.8-.4-.7-.7-1.6-.7-2.6a6 6 0 0 1 1.1-3.8 7 7 0 0 1 2.9-2.2c1.1-.5 2.5-.9 4-1l4.3-.7 4.1-.7c1.3-.2 2.4-.7 3.2-1.3v6.6Zm10.5 8.5-2 .3c-1 0-1.6-.4-1.8-1-.2-.8-.3-1.9-.3-3.4V497a11 11 0 0 0-1.2-5.5 10 10 0 0 0-3.5-3.3c-1.4-.8-3-1.3-4.7-1.6a37 37 0 0 0-11.5.3c-2 .5-3.7 1.2-5.2 2.3-1.5 1-2.7 2.4-3.6 4a13 13 0 0 0-1.6 6.2h6.5c.1-3 1.1-4.9 3-5.9 1.8-1 4-1.5 6.8-1.5 1 0 2 0 3 .2 1 .1 2 .4 2.8.9.9.5 1.5 1.1 2 2 .6.8.9 2 .9 3.4 0 1.2-.4 2.1-1.1 2.7a7 7 0 0 1-2.9 1.5 28 28 0 0 1-4.2.7 58 58 0 0 0-10 2c-1.5.4-3 1-4.2 2a11 11 0 0 0-3 3.4c-.7 1.5-1 3.3-1 5.5 0 2 .3 3.6 1 5a9 9 0 0 0 2.7 3.4 11 11 0 0 0 4.1 1.9 20.6 20.6 0 0 0 12.7-.8 16 16 0 0 0 6.2-4.6c0 2.2.5 3.7 1.5 4.6 1 1 2.3 1.4 4 1.4a9 9 0 0 0 4.6-1v-5Zm-48.5 2.6a17.2 17.2 0 0 1-11 3.4c-3.2 0-5.9-.5-8.2-1.5a16 16 0 0 1-5.8-4.3 18 18 0 0 1-3.5-6.5 32 32 0 0 1-1.3-8.3c0-3 .4-5.7 1.3-8.1 1-2.5 2.2-4.7 3.9-6.5a17.3 17.3 0 0 1 13.2-5.7c3.5 0 6.4.7 8.7 2.1a18 18 0 0 1 5.5 5.5 21 21 0 0 1 2.9 7.3c.5 2.6.7 5.1.6 7.5h-29.3c0 1.7.1 3.3.6 4.9a10.8 10.8 0 0 0 6 7c1.6.6 3.5 1 5.6 1 2.7 0 5-.7 6.7-2a9.2 9.2 0 0 0 3.5-5.7h6.3c-.8 4.4-2.7 7.7-5.6 10m-1.6-25.2a11 11 0 0 0-10.3-6.7 10.4 10.4 0 0 0-8 3.3 12.8 12.8 0 0 0-3.2 7.7h22.5c0-1.5-.4-3-1-4.3M88 478.3v-6h43.3v6h-18v48H106v-48H88Z"/></g><text id="text30" fill="#3d3d3d" font-family="HelveticaNeue,'Helvetica Neue'" font-size="83.5" transform="translate(1097 148.6)"><tspan id="tspan28" x="0" y="0">®</tspan></text></svg>