<svg xmlns="http://www.w3.org/2000/svg" id="Layer_1" data-name="Layer 1" viewBox="0 0 664.79 142.87"><defs><style>.cls-1{fill:#263068;}.cls-2{fill:#f7a70b;}</style></defs><path class="cls-1" d="M163.26,40.09c0-10.67,8.24-19,18.37-19S200,29.42,200,40.09s-8.24,19-18.37,19S163.26,50.76,163.26,40.09Zm28.15,0c0-6.16-4.39-10.67-9.78-10.67s-9.78,4.51-9.78,10.67,4.39,10.67,9.78,10.67S191.41,46.25,191.41,40.09Z"></path><path class="cls-1" d="M210.36,44.83l-8.3-13.33H211l4.45,7.7,4.44-7.7h8.89l-8.3,13.33,8.89,13.93h-8.89l-5-8.3-5,8.3h-8.89Z"></path><path class="cls-1" d="M233.76,40.09h-3.55V32.68h3.55V31.2c0-6.58,3.56-10.07,9.78-10.07a12.24,12.24,0,0,1,2.79.29l1.06.3v7.11l-.59-.12a8.27,8.27,0,0,0-1.48-.18c-2.08,0-3.56,1.49-3.56,3.86v.29h5.63v7.41h-5.63V58.76h-8Z"></path><path class="cls-1" d="M264.57,30.9A14,14,0,0,1,278.5,45.13a13.93,13.93,0,1,1-27.85,0A14,14,0,0,1,264.57,30.9Zm0,7.41c-3.31,0-5.92,2.61-5.92,6.82s2.61,6.81,5.92,6.81,5.93-2.61,5.93-6.81S267.89,38.31,264.57,38.31Z"></path><path class="cls-1" d="M283.23,31.5h5.93l1.19,3a8.72,8.72,0,0,1,1.71-1.6,7.65,7.65,0,0,1,4.8-1.66,10.81,10.81,0,0,1,1.72.18l.65.12v8.29l-.83-.29a6.71,6.71,0,0,0-2.13-.3c-3,0-5,2.07-5,5.63V58.76h-8Z"></path><path class="cls-1" d="M322.64,56.09a12.58,12.58,0,0,1-2.08,1.48,11.35,11.35,0,0,1-5.62,1.48c-6.82,0-12.75-5.86-12.75-13.92s5.93-13.93,12.75-13.93a10.3,10.3,0,0,1,5,1.19,10.79,10.79,0,0,1,1.84,1.18V21.42h8V58.76h-5.93Zm-.59-11c0-3.86-2.61-6.52-5.93-6.52s-5.93,2.66-5.93,6.52,2.61,6.52,5.93,6.52S322.05,49,322.05,45.13Z"></path><path class="cls-1" d="M351.07,21.42h8.59V58.76h-8.59Z"></path><path class="cls-1" d="M366.18,31.5h5.93l1.18,2.66a12.16,12.16,0,0,1,2.19-1.48,13.09,13.09,0,0,1,5.81-1.48c6.46,0,11,4.44,11,11.56v16h-8V44.24c0-3.56-2-5.63-5-5.63s-5,2.07-5,5.63V58.76h-8Z"></path><path class="cls-1" d="M400.25,38.9H396.1V32.09h2.07c2.2,0,3.26-1.07,3.26-3.26V25h6.82V31.5h5.63v7.4h-5.63v8.89c0,2.37,1.48,3.86,3.55,3.86a9.16,9.16,0,0,0,1.48-.12l.6-.18v7.11a4.56,4.56,0,0,1-1.07.3,13,13,0,0,1-2.78.29c-6.23,0-9.78-3.49-9.78-10.07Z"></path><path class="cls-1" d="M444.09,50.76c-1.42,4.44-5.68,8.59-12.74,8.59a14,14,0,0,1-13.63-14.22A14,14,0,0,1,431.65,30.9c7.41,0,13.33,5.63,13.33,14.23a14.78,14.78,0,0,1-.17,1.77l-.12.89H426a5.85,5.85,0,0,0,5.63,4.15,5.38,5.38,0,0,0,3.2-.89,2.71,2.71,0,0,0,.95-.89Zm-6.81-8a5.79,5.79,0,0,0-11.26,0Z"></path><path class="cls-1" d="M449.42,31.5h5.93l1.18,3a9.07,9.07,0,0,1,1.72-1.6,7.65,7.65,0,0,1,4.8-1.66,10.81,10.81,0,0,1,1.72.18l.65.12v8.29l-.83-.29a6.71,6.71,0,0,0-2.13-.3c-3,0-5,2.07-5,5.63V58.76h-8Z"></path><path class="cls-1" d="M469.57,31.5h5.92l1.19,2.66a12.16,12.16,0,0,1,2.19-1.48,13.05,13.05,0,0,1,5.81-1.48c6.46,0,11,4.44,11,11.56v16h-8V44.24c0-3.56-2-5.63-5-5.63s-5,2.07-5,5.63V58.76h-8Z"></path><path class="cls-1" d="M517.26,56.09A12.17,12.17,0,0,1,515,57.57a12,12,0,0,1-5.75,1.48c-5.92,0-9.18-3.2-9.18-7.7,0-5.39,3.85-9.19,16.3-9.19,0-2.66-1.49-4.14-3.56-4.14a3.58,3.58,0,0,0-2.9,1.36,3.81,3.81,0,0,0-.66,1.3l-8-.59c.95-5.39,4.69-9.19,11.86-9.19a10.9,10.9,0,0,1,11.26,11.26v16.6h-5.93Zm-.88-9.19c-6.88,0-8.3,1.49-8.3,3.56,0,1.48,1.18,2.67,3.26,2.67a4.77,4.77,0,0,0,5-5Z"></path><path class="cls-1" d="M531.78,38.9h-4.15V32.09h2.07c2.2,0,3.26-1.07,3.26-3.26V25h6.82V31.5h5.63v7.4h-5.63v8.89c0,2.37,1.48,3.86,3.55,3.86a9.06,9.06,0,0,0,1.48-.12l.6-.18v7.11a4.56,4.56,0,0,1-1.07.3,13.07,13.07,0,0,1-2.79.29c-6.22,0-9.77-3.49-9.77-10.07Z"></path><path class="cls-1" d="M555.18,19.64a4.45,4.45,0,1,1-4.45,4.45A4.57,4.57,0,0,1,555.18,19.64ZM551,31.5h8V58.76h-8Z"></path><path class="cls-1" d="M577.69,30.9a14,14,0,0,1,13.93,14.23,13.93,13.93,0,1,1-27.85,0A14,14,0,0,1,577.69,30.9Zm0,7.41c-3.31,0-5.92,2.61-5.92,6.82s2.61,6.81,5.92,6.81,5.93-2.61,5.93-6.81S581,38.31,577.69,38.31Z"></path><path class="cls-1" d="M596.35,31.5h5.93l1.19,2.66a12.16,12.16,0,0,1,2.19-1.48,13.05,13.05,0,0,1,5.81-1.48c6.46,0,11,4.44,11,11.56v16h-8V44.24c0-3.56-2-5.63-5-5.63s-5,2.07-5,5.63V58.76h-8Z"></path><path class="cls-1" d="M644.05,56.09a12.17,12.17,0,0,1-2.25,1.48,12,12,0,0,1-5.75,1.48c-5.92,0-9.18-3.2-9.18-7.7,0-5.39,3.85-9.19,16.3-9.19,0-2.66-1.49-4.14-3.56-4.14a3.61,3.61,0,0,0-2.91,1.36,4,4,0,0,0-.65,1.3l-8-.59c1-5.39,4.69-9.19,11.86-9.19a10.89,10.89,0,0,1,11.25,11.26v16.6h-5.92Zm-.88-9.19c-6.88,0-8.3,1.49-8.3,3.56,0,1.48,1.18,2.67,3.26,2.67a4.77,4.77,0,0,0,5-5Z"></path><path class="cls-1" d="M656.79,21.42h8V58.76h-8Z"></path><path class="cls-1" d="M166.22,76.23h10.37c9.78,0,17.78,8,17.78,18.67s-8,18.67-17.78,18.67H166.22Zm10.37,33.19c6.88,0,13-6.22,13-14.52s-6.16-14.52-13-14.52H171v29Z"></path><path class="cls-1" d="M202.78,76.53A2.82,2.82,0,1,1,200,79.37,2.73,2.73,0,0,1,202.78,76.53ZM200.59,86.9H205v26.67h-4.44Z"></path><path class="cls-1" d="M216.88,115.64c.89,2.08,2.66,3.85,6.52,3.85,4.5,0,7.4-3,7.4-6.81v-3.56A10.31,10.31,0,0,1,229,110.9a10,10,0,0,1-5.87,1.78c-6.81,0-12.15-5.28-12.15-13s5.34-13,12.15-13A10,10,0,0,1,229,88.26a9.82,9.82,0,0,1,1.83,1.6l1.19-3h3.26v25.78c0,6.22-4.74,11-11.85,11-6.11,0-9.84-3.55-11-8Zm14.52-16c0-5.33-3.56-8.89-8-8.89s-8,3.56-8,8.89,3.55,8.89,8,8.89S231.4,105,231.4,99.64Z"></path><path class="cls-1" d="M245.14,76.53a2.82,2.82,0,1,1-2.79,2.84A2.73,2.73,0,0,1,245.14,76.53ZM243,86.9h4.44v26.67H243Z"></path><path class="cls-1" d="M257.16,91.05h-4.74V86.9h2.08c2.19,0,3.26-1.07,3.26-3.26V79.79h3.85V86.9h5.93v4.15h-5.93V105c0,3,1.78,4.75,4.44,4.75a5.27,5.27,0,0,0,1.07-.12l.42-.18v3.85a2.22,2.22,0,0,1-.66.3,6.49,6.49,0,0,1-2,.29c-4.09,0-7.71-3.55-7.71-8.89Z"></path><path class="cls-1" d="M289.16,110.6a9,9,0,0,1-2,1.66,10.76,10.76,0,0,1-6,1.6c-5.33,0-8.89-3.55-8.89-8,0-5,3.56-8.59,16.89-8.59V95.79c0-2.67-2.31-5-5.63-5s-4.68,1.48-5.33,3.85h-4.74c.65-4.44,4.15-8,10.07-8s10.08,4.21,10.08,9.19v17.78h-3.26Zm0-9.18c-10.67,0-12.44,1.78-12.44,4.74,0,1.84,1.77,3.56,4.44,3.56,4.74,0,8-3.26,8-6.23Z"></path><path class="cls-1" d="M301.3,76.23h4.45v37.34H301.3Z"></path><path class="cls-1" d="M327.37,76.23h4.74v37.34h-4.74Z"></path><path class="cls-1" d="M340.7,86.9H344l1.19,3a9,9,0,0,1,2-1.6,10.2,10.2,0,0,1,5.75-1.66c5.63,0,10.37,4.74,10.37,11.56v15.41h-4.44V98.16c0-4.44-3-7.41-6.52-7.41-4.21,0-7.11,2.9-7.11,7.41v15.41H340.7Z"></path><path class="cls-1" d="M373.29,105.57c.3,2.37,2,4.15,5.33,4.15,3,0,4.74-1.78,4.74-3.86,0-6-13.92-1.42-13.92-11.55,0-4.09,3.55-7.71,8.89-7.71,5.69,0,8.89,3.26,9.18,8h-4.44c-.3-2.37-1.72-3.85-4.74-3.85-2.67,0-4.45,1.72-4.45,3.56,0,6,13.93,1.48,13.93,11.55,0,4.45-3.56,8-9.19,8-5.92,0-9.48-3.55-9.77-8.29Z"></path><path class="cls-1" d="M396.1,91.05h-4.74V86.9h2.07c2.19,0,3.26-1.07,3.26-3.26V79.79h3.85V86.9h5.93v4.15h-5.93V105c0,3,1.78,4.75,4.45,4.75a5.17,5.17,0,0,0,1.06-.12l.42-.18v3.85a2.28,2.28,0,0,1-.65.3,6.6,6.6,0,0,1-2,.29c-4.09,0-7.7-3.55-7.7-8.89Z"></path><path class="cls-1" d="M415.17,76.53a2.82,2.82,0,1,1-2.78,2.84A2.74,2.74,0,0,1,415.17,76.53ZM413,86.9h4.45v26.67H413Z"></path><path class="cls-1" d="M427.2,91.05h-4.74V86.9h2.08c2.19,0,3.26-1.07,3.26-3.26V79.79h3.85V86.9h5.92v4.15h-5.92V105c0,3,1.77,4.75,4.44,4.75a5.27,5.27,0,0,0,1.07-.12l.41-.18v3.85a2.05,2.05,0,0,1-.65.3,6.49,6.49,0,0,1-2,.29c-4.09,0-7.71-3.55-7.71-8.89Z"></path><path class="cls-1" d="M444.09,86.9h4.44v15.41c0,4.44,2.91,7.41,6.52,7.41,4.21,0,7.11-2.91,7.11-7.41V86.9h4.45v26.67h-3.26l-1.19-3a7.52,7.52,0,0,1-2,1.66,10.21,10.21,0,0,1-5.75,1.6c-5.63,0-10.37-4.74-10.37-11.55Z"></path><path class="cls-1" d="M476.38,91.05h-4.74V86.9h2.07c2.19,0,3.26-1.07,3.26-3.26V79.79h3.85V86.9h5.93v4.15h-5.93V105c0,3,1.78,4.75,4.45,4.75a5.17,5.17,0,0,0,1.06-.12l.42-.18v3.85a2.28,2.28,0,0,1-.65.3,6.6,6.6,0,0,1-2,.29c-4.09,0-7.7-3.55-7.7-8.89Z"></path><path class="cls-1" d="M514.89,106.46a12,12,0,0,1-11.26,7.4c-7.11,0-12.74-5.63-12.74-13.63s6-13.63,12.45-13.63,12.14,5.28,12.14,13.34a10.36,10.36,0,0,1-.17,1.72l-.12.65H495.63a8.26,8.26,0,0,0,8,7.41,8,8,0,0,0,6.52-3.26Zm-3.85-8c-.65-4.45-3.85-7.71-7.7-7.71s-7,3.26-7.71,7.71Z"></path><path class="cls-1" d="M58,13.46a58,58,0,1,0,58,58A58,58,0,0,0,58,13.46Zm-51.64,58a51.73,51.73,0,0,1,34-48.55c-9.69,10-16.16,28-16.16,48.55S30.67,110,40.36,120A51.72,51.72,0,0,1,6.34,71.44ZM58,123.08a52.37,52.37,0,0,1-7.13-.5C38,116.87,28.42,96.11,28.42,71.44S38,26,50.85,20.3A50.82,50.82,0,0,1,58,19.79a51.65,51.65,0,0,1,0,103.29Z"></path><path class="cls-2" d="M75.93,21.28C70.62,7.56,63.44,0,55.71,0,51,0,46.6,2.7,42.55,8a1,1,0,0,0,.09,1.34,1.06,1.06,0,0,0,.72.3A1,1,0,0,0,44,9.45,10.86,10.86,0,0,1,50.57,7C56.8,7,63,13.72,67.56,25.5c4.74,12.25,7.36,28.57,7.36,45.94s-2.62,33.68-7.36,45.94c-4.57,11.78-10.76,18.54-17,18.54a10.86,10.86,0,0,1-6.6-2.49,1,1,0,0,0-.61-.21,1,1,0,0,0-.81,1.63c4.05,5.32,8.48,8,13.16,8,7.73,0,14.91-7.55,20.22-21.27C81.13,108.18,84,90.37,84,71.44S81.13,34.69,75.93,21.28Z"></path></svg>