<svg xmlns="http://www.w3.org/2000/svg" width="250.76mm" height="96.99mm" viewBox="0 0 710.8 274.94"><title>TEFL Logo FC withStrapline</title><path d="M41.7,233.79v29.08H56.83v5H35.72V233.79Z" fill="#2ea18b"/><path d="M83.29,259.75c-.59,5.84-5.39,8.76-12.12,8.76-7.32,0-12.46-4.36-12.46-13.6,0-8.31,4.85-13.65,12.46-13.65,8.16,0,11.92,4.89,11.92,11.72v3.21H64.65c.09,5.29,2.62,7.87,6.77,7.87,3.31,0,6.13-1.24,6.58-5Zm-18.5-7.81H77.31v-.5c0-3.16-1.88-5.78-6.09-5.78C67.27,245.66,65,248.18,64.79,251.94Z" fill="#2ea18b"/><path d="M97.33,251.94h5.44v-1.48c0-3.17-2-4.7-5.14-4.7-2.38,0-5.29.79-5.54,4.15h-.3l-4.74-1.19c.39-6.23,6.57-7.46,10.88-7.46,5.83,0,10.58,2.67,10.58,9.84v16.81h-5v-4.1h-.19c-1.49,2.67-4.36,4.45-8.46,4.45-4.75,0-8.65-2.57-8.65-8C86.21,253.82,91.79,251.94,97.33,251.94Zm5.44,4.1h-5c-3.46,0-5.69,1-5.69,3.91,0,2.47,1.78,3.71,4.25,3.71,2.92,0,6.43-1.88,6.43-5.54Z" fill="#2ea18b"/><path d="M129.23,241.55v5.1h-.69c-5.3,0-8.56,3.21-8.56,9.15v12.11h-5.74V241.85h5.59v5.34H120c1.34-4.4,4.9-5.64,8.65-5.64Z" fill="#2ea18b"/><path d="M137.78,241.85v4.06h.2c1.68-3.27,5.29-4.65,8.6-4.65,5.35,0,9.2,3.16,9.2,9.34v17.31h-5.73V251.05c0-3.17-1.44-5.24-5-5.24-4.55,0-6.72,3.56-6.72,7.42v14.68h-5.74V241.85Z" fill="#2ea18b"/><path d="M176.25,241.85v-5.93H182v5.93h8v4.45h-8v14.39c0,2.52.94,3.41,3.26,3.41a12.49,12.49,0,0,0,3.76-.69l.5,4.45a36.75,36.75,0,0,1-5.84.65c-4,0-7.47-1.34-7.47-6.93V246.3h-5.09v-4.45Z" fill="#2ea18b"/><path d="M205.18,268.51c-8.06,0-13-4.9-13-13.6s4.89-13.65,13-13.65,13,4.89,13,13.65S213.29,268.51,205.18,268.51Zm0-4.45c4.7,0,7.12-3.52,7.12-9.15s-2.42-9.15-7.12-9.15-7.07,3.41-7.07,9.15S200.53,264.06,205.18,264.06Z" fill="#2ea18b"/><path d="M237.47,241.85v-5.93h5.79v5.93h8v4.45h-8v14.39c0,2.52.94,3.41,3.26,3.41a12.55,12.55,0,0,0,3.76-.69l.49,4.45a36.49,36.49,0,0,1-5.83.65c-4,0-7.47-1.34-7.47-6.93V246.3h-5.09v-4.45Z" fill="#2ea18b"/><path d="M278,259.75c-.59,5.84-5.39,8.76-12.11,8.76-7.32,0-12.47-4.36-12.47-13.6,0-8.31,4.85-13.65,12.47-13.65,8.16,0,11.91,4.89,11.91,11.72v3.21H259.33c.1,5.29,2.62,7.87,6.77,7.87,3.32,0,6.14-1.24,6.58-5Zm-18.49-7.81H272v-.5c0-3.16-1.88-5.78-6.08-5.78C262,245.66,259.72,248.18,259.48,251.94Z" fill="#2ea18b"/><path d="M292,251.94h5.44v-1.48c0-3.17-2-4.7-5.15-4.7-2.37,0-5.29.79-5.54,4.15h-.29l-4.75-1.19c.39-6.23,6.58-7.46,10.88-7.46,5.83,0,10.58,2.67,10.58,9.84v16.81h-5v-4.1H298c-1.48,2.67-4.35,4.45-8.46,4.45-4.74,0-8.65-2.57-8.65-8C280.89,253.82,286.48,251.94,292,251.94Zm5.44,4.1h-5c-3.46,0-5.69,1-5.69,3.91,0,2.47,1.78,3.71,4.26,3.71,2.91,0,6.43-1.88,6.43-5.54Z" fill="#2ea18b"/><path d="M320.2,241.26c6.48,0,11.38,3.11,11.28,9.49l-5.59.45c0-3.17-2-5.44-5.69-5.44-4.45,0-6.82,3.16-6.82,9.1s2.62,9.2,6.82,9.2,6-2.68,6.18-5.84l5.54.35c-.34,7.07-5,9.94-11.72,9.94-8.21,0-12.71-5.49-12.71-13.7S311.84,241.26,320.2,241.26Z" fill="#2ea18b"/><path d="M342,233.79v11.62c1.73-2.87,4.94-4.15,8.21-4.15,5.39,0,9.2,3.21,9.2,9.39v17.26h-5.69V253.32c0-4.4-.74-7.46-5-7.46-5.44,0-6.68,4.6-6.68,9.34v12.71h-5.74V233.79Z" fill="#2ea18b"/><path d="M370.44,262.92l-3.66,12h-3.71l2.23-12Z" fill="#2ea18b"/><path d="M400.75,241.85v4.5H394v21.56h-5.74V246.35h-4.75v-4.5h4.6a13.76,13.76,0,0,1-.19-2.32c0-4,3-6.28,8.25-6.28a24.56,24.56,0,0,1,6.48.84l-.24,4.1a16.68,16.68,0,0,0-4.75-.74c-2.37,0-3.81.74-3.81,3.11a6.73,6.73,0,0,0,.15,1.29Z" fill="#2ea18b"/><path d="M419.69,241.55v5.1H419c-5.29,0-8.55,3.21-8.55,9.15v12.11h-5.74V241.85h5.59v5.34h.15c1.33-4.4,4.89-5.64,8.65-5.64Z" fill="#2ea18b"/><path d="M434.87,268.51c-8.06,0-12.95-4.9-12.95-13.6s4.89-13.65,12.95-13.65,13,4.89,13,13.65S443,268.51,434.87,268.51Zm0-4.45c4.7,0,7.13-3.52,7.13-9.15s-2.43-9.15-7.13-9.15-7.07,3.41-7.07,9.15S430.23,264.06,434.87,264.06Z" fill="#2ea18b"/><path d="M469.29,251.05c0-3.22-1.38-5.24-4.3-5.24-4.2,0-6.23,3.61-6.23,7.42v14.68H453V241.85h5.24v4.06h.2c1.68-3.27,4.65-4.65,8.16-4.65a7.66,7.66,0,0,1,7.67,5.24,8.68,8.68,0,0,1,8.31-5.24c5.19,0,8.65,3.21,8.65,9.34v17.31h-5.79V251.05c0-3.36-1.38-5.24-4.4-5.24-4.2,0-5.88,3.26-6,6.87v15.23h-5.74Z" fill="#2ea18b"/><path d="M512.81,241.85v-5.93h5.78v5.93h8v4.45h-8v14.39c0,2.52.94,3.41,3.27,3.41a12.55,12.55,0,0,0,3.76-.69l.49,4.45a36.62,36.62,0,0,1-5.84.65c-4,0-7.46-1.34-7.46-6.93V246.3h-5.1v-4.45Z" fill="#2ea18b"/><path d="M553.85,259.75c-.59,5.84-5.39,8.76-12.11,8.76-7.32,0-12.47-4.36-12.47-13.6,0-8.31,4.85-13.65,12.47-13.65,8.16,0,11.91,4.89,11.91,11.72v3.21H535.21c.1,5.29,2.62,7.87,6.77,7.87,3.32,0,6.14-1.24,6.58-5Zm-18.49-7.81h12.51v-.5c0-3.16-1.88-5.78-6.08-5.78C537.83,245.66,535.6,248.18,535.36,251.94Z" fill="#2ea18b"/><path d="M568.44,251.94h5.44v-1.48c0-3.17-2-4.7-5.14-4.7-2.38,0-5.3.79-5.54,4.15h-.3l-4.75-1.19c.4-6.23,6.58-7.46,10.88-7.46,5.84,0,10.59,2.67,10.59,9.84v16.81h-5v-4.1h-.2c-1.48,2.67-4.35,4.45-8.45,4.45-4.75,0-8.66-2.57-8.66-8C557.31,253.82,562.9,251.94,568.44,251.94Zm5.44,4.1h-5c-3.46,0-5.68,1-5.68,3.91,0,2.47,1.78,3.71,4.25,3.71,2.92,0,6.43-1.88,6.43-5.54Z" fill="#2ea18b"/><path d="M597.17,241.26c6.48,0,11.37,3.11,11.27,9.49l-5.58.45c0-3.17-2-5.44-5.69-5.44-4.45,0-6.83,3.16-6.83,9.1s2.63,9.2,6.83,9.2,6-2.68,6.18-5.84l5.54.35c-.35,7.07-5,9.94-11.72,9.94-8.21,0-12.71-5.49-12.71-13.7S588.81,241.26,597.17,241.26Z" fill="#2ea18b"/><path d="M619.47,233.79v11.62a9.28,9.28,0,0,1,8.21-4.15c5.39,0,9.2,3.21,9.2,9.39v17.26h-5.69V253.32c0-4.4-.74-7.46-5-7.46-5.44,0-6.68,4.6-6.68,9.34v12.71h-5.74V233.79Z" fill="#2ea18b"/><path d="M666.3,259.75c-.59,5.84-5.39,8.76-12.12,8.76-7.32,0-12.46-4.36-12.46-13.6,0-8.31,4.85-13.65,12.46-13.65,8.16,0,11.92,4.89,11.92,11.72v3.21H647.66c.1,5.29,2.62,7.87,6.77,7.87,3.31,0,6.13-1.24,6.58-5Zm-18.49-7.81h12.51v-.5c0-3.16-1.88-5.78-6.09-5.78C650.28,245.66,648.05,248.18,647.81,251.94Z" fill="#2ea18b"/><path d="M686.33,241.55v5.1h-.7c-5.29,0-8.55,3.21-8.55,9.15v12.11h-5.74V241.85h5.59v5.34h.15c1.33-4.4,4.9-5.64,8.65-5.64Z" fill="#2ea18b"/><path d="M689.09,249.42c0-5.64,4.95-8.16,10.54-8.16s10.23,2.17,10.28,7.91l-4.45.69H705c-.05-3.26-2.52-4.25-5.34-4.25-2.52,0-4.7,1.09-4.7,3.41,0,5.74,15.87,0,15.87,11,0,5.93-5.63,8.46-11,8.46-5.59,0-11-1.49-11-7.42l4.79-1h.3c0,3.46,3.26,4.2,5.74,4.2,3.61,0,5.19-1.73,5.19-3.66C704.82,254.56,689.09,260.89,689.09,249.42Z" fill="#2ea18b"/><path d="M272.12,42.68c-3-2.76-4.94-6.9-4.94-12.82,0-11.44,7.5-22.49,23.28-22.49a30.22,30.22,0,0,1,13,2.77,32,32,0,0,1,11.44,8.08c2.17-6.51,7.5-10.85,14.4-10.85a15.74,15.74,0,0,1,10.26,3.75c3,2.57,4.93,6.71,4.93,12.82,0,12-7.89,22.49-23.28,22.49a32.18,32.18,0,0,1-13.81-3.16,32,32,0,0,1-10.65-7.69c-2.36,6.12-7.3,10.85-14.4,10.85A15.66,15.66,0,0,1,272.12,42.68Z" fill="#2ea18b"/><path d="M37.48,101.32H22.29C7.69,101.32,0,94,0,80.21v-.59C0,66.4,7.69,59.69,22.29,59.69h77.92c15,0,22.28,6.71,22.28,19.93v.59c0,13.81-7.29,21.11-22.28,21.11H85.8V166c0,14.6-7.69,22.3-21.5,22.3H57.4c-13.21,0-19.92-7.7-19.92-22.3Z" fill="#50565b"/><path d="M130.39,160.89V86.52c0-17.75,8.48-26.83,24.46-26.83h65.09c15.39,0,22.29,5.72,22.29,18.35v1c0,13.22-6.9,18.15-22.29,18.15H178.71v8.48H203c16,0,22.29,4.74,22.29,16.38v.59c0,12.43-6.51,17.55-22.29,17.55H178.71v10.06h42c15.39,0,22.29,4.54,22.29,17v1c0,13.22-6.9,19.14-22.29,19.14H154.85C138.87,187.32,130.39,178.64,130.39,160.89Z" fill="#50565b"/><path d="M252.88,86.52c0-17.75,8.49-26.83,24.46-26.83h59.18c15.39,0,22.29,5.72,22.29,18.35v1c0,13.22-6.9,19.14-22.29,19.14H300.23v13.41H323.5c16,0,22.29,5.72,22.29,17.36v.59c0,12.43-6.51,18.54-22.29,18.54H302.2v17.76c0,14.59-7.3,22.29-21.11,22.29H273.2c-13.21,0-20.32-10.65-20.32-28.41Z" fill="#50565b"/><path d="M368.08,160.89V81c0-15,7.11-22.29,20.32-22.29h6.9c13.81,0,21.11,7.3,21.11,22.29v64.7h31.17c15,0,22.29,6.7,22.29,19.92v.59c0,13.81-7.3,21.11-22.29,21.11h-55C376.57,187.32,368.08,178.64,368.08,160.89Z" fill="#50565b"/><path d="M141.63,30c0-12.43,7.69-19.53,19.92-19.53,12,0,20.12,6.9,20.12,19.53,0,12.23-7.69,19.33-19.92,19.33C149.72,49.32,141.63,42.41,141.63,30Z" fill="#2d9db7"/><path d="M191.54,30c0-12.43,7.69-19.53,19.92-19.53,12,0,20.12,6.9,20.12,19.53,0,12.23-7.69,19.33-19.92,19.33C199.62,49.32,191.54,42.41,191.54,30Z" fill="#2d9db7"/><path d="M424.7,86.52V75.28c0-11.45,2.95-16.57,18.34-16.57h2c17.56,0,19.14,4.73,14,18.54l-3.75,10.26c-2.37,6.7-8.48,9.66-14.2,9.66h-6.51C428.25,97.17,424.7,93.23,424.7,86.52Z" fill="#2d9db7"/><path d="M527.49,186.89c-23.86,0-39.35-15.18-39.35-42.29,0-27.27,15.49-42.45,39.35-42.45s39.19,15.18,39.19,42.45C566.68,171.71,551.34,186.89,527.49,186.89Zm0-9.92c17.35,0,27.26-12.7,27.26-32.37,0-20-9.91-32.53-27.26-32.53s-27.27,12.54-27.27,32.53C500.22,164.27,510.14,177,527.49,177Z" fill="#50565b"/><path d="M627.55,103.08v11.16h-2.16c-19.21,0-28.66,14.09-28.66,31.75v39H585.11V104h11.31v18.28h.46c4.19-13.94,16.27-19.21,28.82-19.21Z" fill="#50565b"/><path d="M669.69,159.93a36.91,36.91,0,0,1-15.8-3.25c-3.72,2.48-5.12,5.27-5.12,8.06,0,3.87,3.41,7.43,10.54,7.43h24.16c16.11,0,25.41,6.66,25.41,19.83,0,16.11-12.86,24.78-38.26,24.78-27.27,0-36.41-7.9-36.41-20.91,0-7.12,4.19-14.25,14.26-16.42v-.31c-6.67-1.55-10.85-6.5-10.85-12.7,0-4.8,2.63-10.38,9.45-13.48-6-4.8-9.6-12.39-9.6-21.84,0-17.5,12.08-28.81,32.22-28.81,5.11,0,10.69.77,13.78,2.17v-.16h27.11v9.92H695.09a23.19,23.19,0,0,1,7.13,17.35C702.22,150.33,688.74,159.93,669.69,159.93Zm-8.52,22.78c-10.38,0-14.87,6-14.87,12.23,0,8.21,6,11.93,24.16,11.93,19.36,0,26.34-4,26.34-13.94,0-6.66-5.12-10.22-13.33-10.22Zm8.52-32.54c13,0,20.45-6.81,20.45-19s-7.44-19.05-20.45-19.05c-12.71,0-20.14,6.81-20.14,19.05S657,150.17,669.69,150.17Z" fill="#50565b"/><path d="M18.49,46.16V6.82H3.17V0H41.9V6.82H26.59V46.16Z" fill="#50565b"/><path d="M55.29,0V15.72c2.34-3.88,6.69-5.62,11.1-5.62,7.29,0,12.44,4.35,12.44,12.71V46.16H71.14V26.42c0-6-1-10.1-6.82-10.1-7.36,0-9,6.22-9,12.65V46.16H47.53V0Z" fill="#50565b"/><path d="M118.64,35.12C117.84,43,111.35,47,102.25,47c-9.9,0-16.86-5.89-16.86-18.4,0-11.23,6.56-18.46,16.86-18.46,11,0,16.12,6.62,16.12,15.86V30.3h-25c.13,7.16,3.55,10.64,9.16,10.64,4.49,0,8.3-1.67,8.9-6.76Zm-25-10.57h16.93v-.67c0-4.28-2.55-7.83-8.23-7.83C97,16.05,94,19.47,93.62,24.55Z" fill="#50565b"/></svg>